<svg xmlns="http://www.w3.org/2000/svg" viewBox="0 0 400 400" width="400" height="400" font-family="'JetBrains Mono','Fira Code',Consolas,monospace">
<rect x="1" y="1" width="398" height="398" rx="14" fill="#f6f8fa" stroke="#d0d7de"/>
<text x="20" y="30" fill="#0e7490" font-size="13" font-weight="700">LANG.RADAR</text>
<polygon points="200.0,175.0 226.0,190.0 226.0,220.0 200.0,235.0 174.0,220.0 174.0,190.0" fill="none" stroke="#d0d7de"/><polygon points="200.0,145.0 252.0,175.0 252.0,235.0 200.0,265.0 148.0,235.0 148.0,175.0" fill="none" stroke="#d0d7de"/><polygon points="200.0,115.0 277.9,160.0 277.9,250.0 200.0,295.0 122.1,250.0 122.1,160.0" fill="none" stroke="#d0d7de"/><polygon points="200.0,85.0 303.9,145.0 303.9,265.0 200.0,325.0 96.1,265.0 96.1,145.0" fill="none" stroke="#d0d7de"/><line x1="200" y1="205" x2="200.0" y2="85.0" stroke="#d0d7de"/><line x1="200" y1="205" x2="303.9" y2="145.0" stroke="#d0d7de"/><line x1="200" y1="205" x2="303.9" y2="265.0" stroke="#d0d7de"/><line x1="200" y1="205" x2="200.0" y2="325.0" stroke="#d0d7de"/><line x1="200" y1="205" x2="96.1" y2="265.0" stroke="#d0d7de"/><line x1="200" y1="205" x2="96.1" y2="145.0" stroke="#d0d7de"/>
<polygon points="200.0,85.0 224.7,190.8 215.6,214.0 200.0,221.9 195.7,207.5 199.2,204.5" fill="#6d4fd8" fill-opacity="0.35" stroke="#6d4fd8" stroke-width="2"/>
<text x="200.0" y="67.0" fill="#1f2328" font-size="12" text-anchor="middle">HTML</text><text x="323.0" y="138.0" fill="#1f2328" font-size="12" text-anchor="start">JavaScript</text><text x="323.0" y="280.0" fill="#1f2328" font-size="12" text-anchor="start">TypeScript</text><text x="200.0" y="351.0" fill="#1f2328" font-size="12" text-anchor="middle">CSS</text><text x="77.0" y="280.0" fill="#1f2328" font-size="12" text-anchor="end">Python</text><text x="77.0" y="138.0" fill="#1f2328" font-size="12" text-anchor="end">PHP</text>
</svg>